<svg width="105" height="105" viewBox="0 0 105 105" fill="none" xmlns="http://www.w3.org/2000/svg">
<g clip-path="url(#clip0_14_41)">
<path d="M104.02 47.8217L58.1758 1.98013C55.5372 -0.660044 51.2552 -0.660044 48.6134 1.98013L39.0937 11.4999L51.1699 23.5761C53.9762 22.6278 57.1943 23.264 59.4313 25.501C61.6789 27.7523 62.3106 30.9979 61.3393 33.8132L72.9775 45.4518C75.7932 44.4818 79.0421 45.1093 81.291 47.3619C84.434 50.5037 84.434 55.5958 81.291 58.7396C78.1471 61.8839 73.055 61.8839 69.9095 58.7396C67.5454 56.373 66.9613 52.901 68.1582 49.9885L57.3046 39.135L57.3034 67.697C58.0902 68.086 58.8088 68.5999 59.4313 69.2187C62.5743 72.3605 62.5743 77.453 59.4313 80.5993C56.2874 83.7419 51.1929 83.7419 48.0535 80.5993C44.9105 77.453 44.9105 72.3609 48.0535 69.2191C48.8067 68.4655 49.7019 67.8687 50.6871 67.4632V38.635C49.7004 38.2322 48.8048 37.635 48.0535 36.8791C45.6722 34.501 45.0996 31.0069 46.3198 28.0829L34.4154 16.1773L2.98105 47.6096C0.339648 50.2522 0.339648 54.5347 2.98105 57.1753L48.8259 103.018C51.4652 105.658 55.7464 105.658 58.3891 103.018L104.019 57.3881C106.66 54.7467 106.66 50.4618 104.019 47.8217" fill="#DE4C36"/>
</g>
<defs>
<clipPath id="clip0_14_41">
<rect width="105" height="105" fill="white"/>
</clipPath>
</defs>
</svg>
