<svg width="112" height="112" viewBox="0 0 112 112" fill="none" xmlns="http://www.w3.org/2000/svg">
<path d="M101.535 17.6052L81.354 7.88923C80.2143 7.33973 78.9319 7.15839 77.6845 7.37036C76.4372 7.58233 75.2867 8.1771 74.3925 9.07223L8.32998 69.3002C7.52845 70.0275 7.04865 71.0435 6.99614 72.1245C6.94363 73.2056 7.32271 74.2632 8.04998 75.0647C8.13748 75.1592 8.22498 75.2502 8.31948 75.3342L13.713 80.2342C14.4178 80.8757 15.3249 81.25 16.277 81.2922C17.229 81.3344 18.1657 81.0418 18.9245 80.4652L98.497 20.1252C99.098 19.6692 99.8144 19.3899 100.566 19.3189C101.317 19.2479 102.073 19.388 102.749 19.7233C103.424 20.0587 103.993 20.5761 104.391 21.2172C104.789 21.8583 105 22.5977 105 23.3522V23.1177C105 21.9659 104.675 20.8375 104.062 19.8623C103.449 18.8871 102.573 18.1047 101.535 17.6052Z" fill="#0065A9"/>
<path d="M101.535 94.395L81.354 104.115C80.214 104.662 78.9319 104.843 77.6849 104.631C76.4379 104.419 75.2875 103.825 74.3925 102.932L8.32998 42.7C7.52845 41.9727 7.04865 40.9568 6.99614 39.8758C6.94363 38.7947 7.32271 37.7371 8.04998 36.9355C8.13748 36.841 8.22498 36.75 8.31948 36.666L13.713 31.766C14.4185 31.1219 15.3277 30.7459 16.2821 30.7037C17.2365 30.6615 18.1754 30.9557 18.935 31.535L98.497 91.875C99.098 92.3311 99.8144 92.6104 100.566 92.6814C101.317 92.7524 102.073 92.6123 102.749 92.2769C103.424 91.9415 103.993 91.4242 104.391 90.783C104.789 90.1419 105 89.4025 105 88.648V88.9C104.996 90.0488 104.669 91.1733 104.057 92.1451C103.444 93.1168 102.57 93.8965 101.535 94.395Z" fill="#007ACC"/>
<path d="M81.354 104.115C80.214 104.663 78.932 104.843 77.685 104.631C76.438 104.419 75.2876 103.825 74.3925 102.932C74.8952 103.428 75.533 103.764 76.2261 103.9C76.9193 104.035 77.6369 103.962 78.289 103.691C78.9412 103.42 79.4988 102.963 79.8921 102.376C80.2855 101.79 80.4969 101.1 80.5 100.394V11.6062C80.5006 10.8967 80.2906 10.203 79.8966 9.61293C79.5026 9.02289 78.9424 8.56306 78.2868 8.2917C77.6313 8.02034 76.91 7.94965 76.2142 8.08858C75.5184 8.22752 74.8796 8.56983 74.3785 9.07216C75.2729 8.17735 76.4232 7.58254 77.6703 7.36998C78.9174 7.15742 80.1998 7.33762 81.34 7.88566L101.518 17.5877C102.559 18.0847 103.438 18.8659 104.054 19.8413C104.671 20.8167 104.998 21.9464 105 23.1002V88.9002C105 90.053 104.675 91.1824 104.061 92.1583C103.448 93.1342 102.571 93.9169 101.532 94.4162L81.354 104.115Z" fill="#1F9CF0"/>
</svg>
